<svg width="24" height="24" viewBox="0 0 24 24" fill="none" xmlns="http://www.w3.org/2000/svg">
<rect x="5" y="1" width="13" height="8" fill="#82868E"/>
<circle cx="7" cy="16" r="4" fill="#82868E"/>
<path d="M2 3.875C2 2.28718 3.27919 1 4.85714 1H6.28571V6.03125C6.28571 7.22212 7.2451 8.1875 8.42857 8.1875H14.1429C15.3263 8.1875 16.2857 7.22212 16.2857 6.03125V1H16.8267C17.5844 1 18.3111 1.3029 18.847 1.84207L21.1631 4.17272C21.699 4.71188 22 5.44315 22 6.20565V18.25C22 19.8379 20.7209 21.125 19.1429 21.125V13.2188C19.1429 12.0279 18.1834 11.0625 17 11.0625H11.0414C8.51676 9.00396 4.80296 9.15633 2.45431 11.5196C2.29244 11.6825 2.141 11.852 2 12.0271V3.875ZM12.8023 18.8829L15.0304 21.125H17.7143V13.2188C17.7143 12.8219 17.3944 12.5 17 12.5H12.3467C13.6167 14.4087 13.7686 16.8474 12.8023 18.8829ZM14.8571 1H7.71429V6.03125C7.71429 6.4282 8.03409 6.75 8.42857 6.75H14.1429C14.5373 6.75 14.8571 6.4282 14.8571 6.03125V1ZM12 16.0938C12 17.2239 11.6297 18.267 11.0046 19.1069L14.648 22.773C14.9269 23.0537 14.9269 23.5088 14.648 23.7895C14.369 24.0701 13.9167 24.0701 13.6377 23.7895L9.99441 20.1234C9.15971 20.7524 8.1231 21.125 7 21.125C4.23857 21.125 2 18.8724 2 16.0938C2 13.3151 4.23857 11.0625 7 11.0625C9.76143 11.0625 12 13.3151 12 16.0938ZM3.42857 16.0938C3.42857 18.0785 5.02756 19.6875 7 19.6875C8.97244 19.6875 10.5714 18.0785 10.5714 16.0938C10.5714 14.109 8.97244 12.5 7 12.5C5.02756 12.5 3.42857 14.109 3.42857 16.0938Z" fill="white"/>
</svg>
