<svg width="24" height="24" viewBox="0 0 24 24" fill="none" xmlns="http://www.w3.org/2000/svg">
<path d="M22.41 22.41C22.2262 22.5976 22.0068 22.7466 21.7647 22.8483C21.5226 22.9501 21.2626 23.0025 21 23.0025C20.7374 23.0025 20.4774 22.9501 20.2353 22.8483C19.9932 22.7466 19.7738 22.5976 19.59 22.41L16.24 19.06C17.3423 18.2977 18.2977 17.3423 19.06 16.24L22.41 19.59C22.5976 19.7738 22.7466 19.9932 22.8483 20.2353C22.9501 20.4774 23.0025 20.7374 23.0025 21C23.0025 21.2626 22.9501 21.5226 22.8483 21.7647C22.7466 22.0068 22.5976 22.2262 22.41 22.41Z" fill="white"/>
<circle cx="10" cy="10" r="8" fill="white"/>
<path d="M10 1C8.21997 1 6.47991 1.52784 4.99987 2.51677C3.51983 3.50571 2.36628 4.91131 1.68509 6.55585C1.0039 8.20038 0.82567 10.01 1.17294 11.7558C1.5202 13.5016 2.37737 15.1053 3.63604 16.364C4.89472 17.6226 6.49836 18.4798 8.24419 18.8271C9.99002 19.1743 11.7996 18.9961 13.4442 18.3149C15.0887 17.6337 16.4943 16.4802 17.4832 15.0001C18.4722 13.5201 19 11.78 19 10C19 7.61305 18.0518 5.32387 16.364 3.63604C14.6761 1.94821 12.387 1 10 1ZM10 6C8.93914 6 7.92172 6.42143 7.17158 7.17157C6.42143 7.92172 6 8.93913 6 10C6 10.2652 5.89465 10.5196 5.70711 10.7071C5.51957 10.8946 5.26522 11 5 11C4.73479 11 4.48043 10.8946 4.2929 10.7071C4.10536 10.5196 4 10.2652 4 10C4.00159 8.40919 4.63424 6.88399 5.75912 5.75911C6.88399 4.63424 8.40919 4.00159 10 4C10.2652 4 10.5196 4.10536 10.7071 4.29289C10.8946 4.48043 11 4.73478 11 5C11 5.26522 10.8946 5.51957 10.7071 5.70711C10.5196 5.89464 10.2652 6 10 6Z" fill="white"/>
<path d="M12.3669 9.1845L13.5314 7.10866L15.7803 9.15591L12.3669 9.1845Z" fill="#82868E"/>
<path d="M4 9.24184L6.2119 7.16028L7.41335 9.21897L4 9.24184Z" fill="#82868E"/>
<path d="M4 9.50483H7.54889L9.66221 14.7659L4 9.50483ZM12.2315 9.44764L15.7804 9.41905L10.2352 14.7373L12.2315 9.44764Z" fill="#82868E"/>
<path d="M7.95557 9.21312L9.87172 7.13156L11.8248 9.18453L7.95557 9.21312Z" fill="#82868E"/>
<path d="M6.46448 7.04589L9.60057 7.02302L7.67209 9.11602L6.46448 7.04589Z" fill="#82868E"/>
<path d="M10.1428 7.02299L13.2727 7.00012L12.1021 9.0874L10.1428 7.02299Z" fill="#82868E"/>
<path d="M7.85071 9.47621L11.9356 9.44762L9.93322 14.6744L7.85071 9.47621Z" fill="#82868E"/>
</svg>
