<svg width="24" height="24" viewBox="0 0 24 24" fill="none" xmlns="http://www.w3.org/2000/svg">
<rect x="12" y="3" width="8" height="8" fill="#82868E"/>
<path d="M19.7778 1H5.33333C3.99333 1 2 1.8789 2 4.3V19.7C2 22.1211 3.99333 23 5.33333 23H22V20.8H5.34667C4.83333 20.7868 4.22222 20.5866 4.22222 19.7C4.22222 19.5889 4.23222 19.4899 4.24889 19.3997C4.37333 18.7661 4.89778 18.611 5.34667 18.6H22V3.2C22 2.61652 21.7659 2.05694 21.3491 1.64437C20.9324 1.23178 20.3671 1 19.7778 1ZM19.7778 10.9L17.5556 9.8L15.3333 10.9V3.2H19.7778V10.9Z" fill="white"/>
</svg>
