<svg width="24" height="24" viewBox="0 0 24 24" fill="none" xmlns="http://www.w3.org/2000/svg">
<circle cx="12" cy="12" r="9" fill="#82868E"/>
<path fill-rule="evenodd" clip-rule="evenodd" d="M12.0601 1.5C6.26556 1.5 1.56006 6.20475 1.56006 12C1.56006 17.7952 6.26556 22.5 12.0601 22.5C17.8553 22.5 22.5601 17.7952 22.5601 12C22.5601 6.20475 17.8553 1.5 12.0601 1.5ZM15.2723 7.20675C16.9508 8.2455 18.0683 10.0732 18.0683 12.1567C18.0683 15.3945 15.3721 18.0142 12.0601 18.0142C8.74881 18.0142 6.05181 15.3945 6.05181 12.1567C6.05181 9.552 7.80006 7.3455 10.2068 6.58425C10.6021 6.459 10.8211 6.0375 10.6958 5.643C10.5713 5.24775 10.1491 5.02875 9.75456 5.154C6.73431 6.1095 4.55181 8.8875 4.55181 12.1567C4.55181 16.2127 7.91181 19.5142 12.0601 19.5142C16.2091 19.5142 19.5683 16.2127 19.5683 12.1567C19.5683 9.63975 18.2753 7.41375 16.3021 6.087L16.6771 5.991C17.0783 5.88825 17.3206 5.4795 17.2178 5.07825C17.1158 4.67775 16.7071 4.43475 16.3058 4.5375L13.9321 5.14425C13.7363 5.1945 13.5691 5.32125 13.4678 5.496C13.3673 5.67075 13.3411 5.87925 13.3958 6.0735L14.0318 8.33775C14.1436 8.73675 14.5583 8.96925 14.9566 8.85675C15.3548 8.745 15.5881 8.331 15.4756 7.932L15.2723 7.20675Z" fill="white"/>
</svg>
