<svg width="40" height="40" viewBox="0 0 40 40" fill="none" xmlns="http://www.w3.org/2000/svg">
<rect opacity="0.2" width="40" height="40" rx="20" fill="white"/>
<path d="M26 23.93V25C26 26.1045 25.1045 27 24 27C17.9235 27 12.998 22.073 13 15.9965C13.0005 14.894 13.8945 14 14.997 14H16.07C16.1775 14 16.273 14.069 16.307 14.171L17.273 17.069C17.3085 17.176 17.2685 17.2935 17.1745 17.356L15.876 18.2215C15.778 18.287 15.736 18.412 15.778 18.522C16.737 21.0135 18.9865 23.263 21.478 24.222C21.588 24.2645 21.713 24.222 21.7785 24.124L22.644 22.8255C22.7065 22.7315 22.824 22.6915 22.931 22.727L25.829 23.693C25.931 23.727 26 23.8225 26 23.93Z" fill="white"/>
<path d="M25 13H20C19.4475 13 19 13.4475 19 14V18C19 18.5525 19.4475 19 20 19H20.5V21L23 19H25C25.5525 19 26 18.5525 26 18V14C26 13.4475 25.5525 13 25 13ZM24 16.5H23V17.5H22V16.5H21V15.5H22V14.5H23V15.5H24V16.5Z" fill="#D0D2D6"/>
</svg>
