<svg width="40" height="40" viewBox="0 0 40 40" fill="none" xmlns="http://www.w3.org/2000/svg">
<rect opacity="0.2" width="40" height="40" rx="20" fill="white"/>
<g clip-path="url(#clip0_1_208)">
<path d="M23.8984 19.3446L25.9587 15.3816L29.9374 19.29L23.8984 19.3446Z" fill="white"/>
<path d="M9.09521 19.4541L13.0086 15.4802L15.1342 19.4105L9.09521 19.4541Z" fill="white"/>
<path opacity="0.7" d="M9.09521 19.9561H15.374L19.113 30L9.09521 19.9561ZM23.6586 19.8469L29.9374 19.7924L20.1267 29.9454L23.6586 19.8469Z" fill="white"/>
<path d="M16.0935 19.3993L19.4836 15.4254L22.9392 19.3447L16.0935 19.3993Z" fill="white"/>
<path opacity="0.7" d="M13.4553 15.2618L19.0038 15.2181L15.5919 19.2139L13.4553 15.2618Z" fill="white"/>
<path opacity="0.7" d="M19.9633 15.2181L25.5008 15.1744L23.4297 19.1593L19.9633 15.2181Z" fill="white"/>
<path d="M15.9081 19.9015L23.1353 19.8469L19.5925 29.8253L15.9081 19.9015Z" fill="white"/>
<path d="M14.5821 14.5263L14.344 13.7678L14.0843 12.9443C14.0358 12.7741 13.9448 12.6191 13.8198 12.4939C13.6948 12.3688 13.54 12.2776 13.37 12.2291L11.8549 11.7523L13.37 11.2755C13.542 11.231 13.6989 11.1411 13.8245 11.0154C13.9501 10.8896 14.0398 10.7325 14.0843 10.5604C14.2575 10.0402 14.409 9.52012 14.5605 9L15.015 10.517C15.0619 10.687 15.1495 10.843 15.2702 10.9714C15.3909 11.0998 15.5411 11.1967 15.7077 11.2539L17.331 11.7523H16.9631L15.7077 12.2291C15.533 12.2801 15.3741 12.3743 15.2454 12.5031C15.1168 12.6319 15.0227 12.7911 14.9717 12.9659L14.5172 14.483L14.5821 14.5263Z" fill="white"/>
<path d="M20.6081 12.3158L20.4176 11.8607L20.2098 11.3666C20.171 11.2644 20.0982 11.1714 19.9982 11.0964C19.8982 11.0213 19.7744 10.9666 19.6384 10.9375L18.4263 10.6514L19.6384 10.3653C19.7759 10.3386 19.9015 10.2847 20.002 10.2092C20.1024 10.1338 20.1742 10.0395 20.2098 9.93622C20.3483 9.62415 20.4696 9.31207 20.5908 9L20.9544 9.91022C20.9919 10.0122 21.062 10.1058 21.1585 10.1828C21.2551 10.2599 21.3752 10.318 21.5085 10.3523L22.8072 10.6514H22.5128L21.5085 10.9375C21.3688 10.9681 21.2416 11.0246 21.1387 11.1019C21.0358 11.1792 20.9605 11.2747 20.9198 11.3796L20.5561 12.2898L20.6081 12.3158Z" fill="white"/>
<path d="M26.0886 14.5263L25.9934 14.2229L25.8895 13.8935C25.8701 13.8254 25.8337 13.7634 25.7837 13.7134C25.7337 13.6633 25.6717 13.6268 25.6037 13.6074L24.9977 13.4167L25.6037 13.226C25.6725 13.2082 25.7353 13.1723 25.7855 13.122C25.8358 13.0716 25.8716 13.0088 25.8895 12.9399C25.9587 12.7319 26.0193 12.5238 26.0799 12.3158L26.2617 12.9226C26.2805 12.9906 26.3155 13.053 26.3638 13.1043C26.4121 13.1557 26.4722 13.1945 26.5388 13.2173L27.1882 13.4167H27.041L26.5388 13.6074C26.469 13.6278 26.4054 13.6655 26.3539 13.717C26.3025 13.7686 26.2648 13.8322 26.2444 13.9022L26.0626 14.509L26.0886 14.5263Z" fill="white"/>
</g>
<defs>
<clipPath id="clip0_1_208">
<rect width="23" height="21" fill="white" transform="translate(8 9)"/>
</clipPath>
</defs>
</svg>
