<svg width="18" height="18" viewBox="0 0 18 18" fill="none" xmlns="http://www.w3.org/2000/svg">
<path d="M16.6705 7.84615L4.05423 7.84615L9.56607 2.18612C10.0066 1.73378 10.0066 0.991479 9.56607 0.53914C9.46158 0.431619 9.33746 0.346315 9.20082 0.288112C9.06419 0.22991 8.91771 0.199951 8.76979 0.199951C8.62186 0.199951 8.47539 0.22991 8.33875 0.288112C8.20212 0.346315 8.078 0.431619 7.97351 0.53914L0.53026 8.18251C0.425554 8.28981 0.342483 8.41726 0.285805 8.55757C0.229126 8.69788 0.199951 8.84829 0.199951 9.0002C0.199951 9.1521 0.229126 9.30251 0.285805 9.44282C0.342483 9.58313 0.425554 9.71059 0.53026 9.81789L7.97351 17.4613C8.07808 17.5686 8.20222 17.6538 8.33885 17.7119C8.47547 17.77 8.62191 17.8 8.76979 17.8C8.91767 17.8 9.06411 17.77 9.20073 17.7119C9.33736 17.6538 9.4615 17.5686 9.56607 17.4613C9.67064 17.3539 9.75359 17.2264 9.81018 17.0861C9.86677 16.9458 9.8959 16.7954 9.8959 16.6436C9.8959 16.4917 9.86677 16.3413 9.81018 16.201C9.75359 16.0607 9.67064 15.9333 9.56607 15.8259L4.05423 10.1658L16.6705 10.1658C17.2917 10.1658 17.8 9.64391 17.8 9.006C17.8 8.36808 17.2917 7.84615 16.6705 7.84615Z" fill="white"/>
</svg>
