<svg width="22" height="16" viewBox="0 0 22 16" fill="none" xmlns="http://www.w3.org/2000/svg">
<path d="M0 1.70901C0 1.13282 0.4906 0.666626 1.0945 0.666626H9.9055C10.1958 0.666626 10.4742 0.776448 10.6794 0.971932C10.8847 1.16742 11 1.43255 11 1.70901C11 1.98546 10.8847 2.2506 10.6794 2.44608C10.4742 2.64157 10.1958 2.75139 9.9055 2.75139H1.0945C0.80422 2.75139 0.52583 2.64157 0.320572 2.44608C0.115313 2.2506 0 1.98546 0 1.70901ZM0 7.99996C0 7.42377 0.4906 6.95758 1.0945 6.95758H20.9055C21.1958 6.95758 21.4742 7.0674 21.6794 7.26288C21.8847 7.45837 22 7.7235 22 7.99996C22 8.27642 21.8847 8.54155 21.6794 8.73703C21.4742 8.93252 21.1958 9.04234 20.9055 9.04234H1.0945C0.80422 9.04234 0.52583 8.93252 0.320572 8.73703C0.115313 8.54155 0 8.27642 0 7.99996ZM1.0945 13.2485C0.80422 13.2485 0.52583 13.3584 0.320572 13.5538C0.115313 13.7493 0 14.0145 0 14.2909C0 14.5674 0.115313 14.8325 0.320572 15.028C0.52583 15.2235 0.80422 15.3333 1.0945 15.3333H14.3055C14.5958 15.3333 14.8742 15.2235 15.0794 15.028C15.2847 14.8325 15.4 14.5674 15.4 14.2909C15.4 14.0145 15.2847 13.7493 15.0794 13.5538C14.8742 13.3584 14.5958 13.2485 14.3055 13.2485H1.0945Z" fill="white"/>
</svg>
