<svg width="44" height="44" viewBox="0 0 44 44" fill="none" xmlns="http://www.w3.org/2000/svg">
<path d="M28.6667 18.6667C27.4975 16.2 24.9475 14.5 22 14.5C21.0151 14.5 20.0398 14.694 19.1299 15.0709C18.2199 15.4478 17.3931 16.0003 16.6967 16.6967C16.0003 17.3931 15.4478 18.2199 15.0709 19.1299C14.694 20.0398 14.5 21.0151 14.5 22C14.5 22.9849 14.694 23.9602 15.0709 24.8701C15.4478 25.7801 16.0003 26.6069 16.6967 27.3033C17.3931 27.9997 18.2199 28.5522 19.1299 28.9291C20.0398 29.306 21.0151 29.5 22 29.5C23.9891 29.5 25.8968 28.7098 27.3033 27.3033C28.7098 25.8968 29.5 23.9891 29.5 22M29.5 14.5V19.5H24.5" stroke="white" stroke-width="2"/>
<rect x="0.5" y="0.5" width="43" height="43" rx="21.5" stroke="#788296" stroke-dasharray="3 3"/>
</svg>
