<svg width="12" height="12" viewBox="0 0 12 12" fill="none" xmlns="http://www.w3.org/2000/svg">
<path d="M0.750058 6.75L9.12756 6.75L5.46756 10.41C5.17506 10.7025 5.17506 11.1825 5.46756 11.475C5.53694 11.5445 5.61936 11.5997 5.71009 11.6373C5.80082 11.675 5.89808 11.6943 5.99631 11.6943C6.09453 11.6943 6.1918 11.675 6.28253 11.6373C6.37326 11.5997 6.45567 11.5445 6.52506 11.475L11.4676 6.5325C11.5371 6.46312 11.5922 6.3807 11.6299 6.28997C11.6675 6.19924 11.6869 6.10198 11.6869 6.00375C11.6869 5.90553 11.6675 5.80826 11.6299 5.71753C11.5922 5.6268 11.5371 5.54439 11.4676 5.475L6.52506 0.532502C6.45562 0.463065 6.37319 0.407986 6.28246 0.370408C6.19174 0.332828 6.0945 0.313488 5.99631 0.313488C5.89811 0.313488 5.80087 0.332828 5.71015 0.370408C5.61943 0.407986 5.53699 0.463065 5.46756 0.532502C5.39812 0.601938 5.34304 0.684372 5.30546 0.775095C5.26788 0.865818 5.24854 0.963055 5.24854 1.06125C5.24854 1.15945 5.26788 1.25669 5.30546 1.34741C5.34304 1.43813 5.39812 1.52057 5.46756 1.59L9.12756 5.25L0.750058 5.25C0.337558 5.25 5.76403e-05 5.5875 5.76763e-05 6C5.77124e-05 6.4125 0.337558 6.75 0.750058 6.75Z" fill="white"/>
</svg>
