<svg width="44" height="44" viewBox="0 0 44 44" fill="none" xmlns="http://www.w3.org/2000/svg">
<g clip-path="url(#clip0_1_136)">
<path d="M15.3333 15.3333H20.3333V20.3333H15.3333V15.3333ZM28.6667 15.3333V20.3333H23.6667V15.3333H28.6667ZM23.6667 24.5H25.3333V22.8333H23.6667V21.1667H25.3333V22.8333H27V21.1667H28.6667V22.8333H27V24.5H28.6667V27H27V28.6667H25.3333V27H22.8333V28.6667H21.1667V25.3333H23.6667V24.5ZM25.3333 24.5V27H27V24.5H25.3333ZM15.3333 28.6667V23.6667H20.3333V28.6667H15.3333ZM17 17V18.6667H18.6667V17H17ZM25.3333 17V18.6667H27V17H25.3333ZM17 25.3333V27H18.6667V25.3333H17ZM15.3333 21.1667H17V22.8333H15.3333V21.1667ZM19.5 21.1667H22.8333V24.5H21.1667V22.8333H19.5V21.1667ZM21.1667 17H22.8333V20.3333H21.1667V17ZM13.6667 13.6667V17H12V13.6667C12 13.2246 12.1756 12.8007 12.4882 12.4882C12.8007 12.1756 13.2246 12 13.6667 12H17V13.6667H13.6667ZM30.3333 12C30.7754 12 31.1993 12.1756 31.5118 12.4882C31.8244 12.8007 32 13.2246 32 13.6667V17H30.3333V13.6667H27V12H30.3333ZM13.6667 27V30.3333H17V32H13.6667C13.2246 32 12.8007 31.8244 12.4882 31.5118C12.1756 31.1993 12 30.7754 12 30.3333V27H13.6667ZM30.3333 30.3333V27H32V30.3333C32 30.7754 31.8244 31.1993 31.5118 31.5118C31.1993 31.8244 30.7754 32 30.3333 32H27V30.3333H30.3333Z" fill="white"/>
</g>
<rect x="0.5" y="0.5" width="43" height="43" rx="21.5" stroke="#788296" stroke-dasharray="3 3"/>
<defs>
<clipPath id="clip0_1_136">
<rect width="20" height="20" fill="white" transform="translate(12 12)"/>
</clipPath>
</defs>
</svg>
