<svg width="44" height="44" viewBox="0 0 44 44" fill="none" xmlns="http://www.w3.org/2000/svg">
<path d="M17 19.4825H12V17.5244H17V19.4825ZM17 22.4195H12V24.3776H17V22.4195ZM30.59 29.2727L26.76 25.523C25.96 26.0321 25.02 26.3356 24 26.3356C21.24 26.3356 19 24.1426 19 21.4405C19 18.7384 21.24 16.5454 24 16.5454C26.76 16.5454 29 18.7384 29 21.4405C29 22.4391 28.69 23.3594 28.17 24.1328L32 27.8923L30.59 29.2727ZM27 21.4405C27 19.8251 25.65 18.5035 24 18.5035C22.35 18.5035 21 19.8251 21 21.4405C21 23.0559 22.35 24.3776 24 24.3776C25.65 24.3776 27 23.0559 27 21.4405ZM12 29.2727H22V27.3146H12V29.2727Z" fill="white"/>
<rect x="0.5" y="0.5" width="43" height="43" rx="21.5" stroke="#788296" stroke-dasharray="3 3"/>
</svg>
