<svg width="16" height="16" viewBox="0 0 16 16" fill="none" xmlns="http://www.w3.org/2000/svg">
<path d="M5.5 7.375H2.375C1.87772 7.375 1.40081 7.17746 1.04917 6.82583C0.697544 6.47419 0.5 5.99728 0.5 5.5V2.375C0.5 1.87772 0.697544 1.40081 1.04917 1.04917C1.40081 0.697544 1.87772 0.5 2.375 0.5H5.5C5.99728 0.5 6.47419 0.697544 6.82583 1.04917C7.17746 1.40081 7.375 1.87772 7.375 2.375V5.5C7.375 5.99728 7.17746 6.47419 6.82583 6.82583C6.47419 7.17746 5.99728 7.375 5.5 7.375Z" fill="white"/>
<path d="M13.625 7.375H10.5C10.0027 7.375 9.52581 7.17746 9.17417 6.82583C8.82254 6.47419 8.625 5.99728 8.625 5.5V2.375C8.625 1.87772 8.82254 1.40081 9.17417 1.04917C9.52581 0.697544 10.0027 0.5 10.5 0.5H13.625C14.1223 0.5 14.5992 0.697544 14.9508 1.04917C15.3025 1.40081 15.5 1.87772 15.5 2.375V5.5C15.5 5.99728 15.3025 6.47419 14.9508 6.82583C14.5992 7.17746 14.1223 7.375 13.625 7.375Z" fill="white"/>
<path d="M5.5 15.5H2.375C1.87772 15.5 1.40081 15.3025 1.04917 14.9508C0.697544 14.5992 0.5 14.1223 0.5 13.625V10.5C0.5 10.0027 0.697544 9.52581 1.04917 9.17417C1.40081 8.82254 1.87772 8.625 2.375 8.625H5.5C5.99728 8.625 6.47419 8.82254 6.82583 9.17417C7.17746 9.52581 7.375 10.0027 7.375 10.5V13.625C7.375 14.1223 7.17746 14.5992 6.82583 14.9508C6.47419 15.3025 5.99728 15.5 5.5 15.5Z" fill="white"/>
<path d="M13.625 15.5H10.5C10.0027 15.5 9.52581 15.3025 9.17417 14.9508C8.82254 14.5992 8.625 14.1223 8.625 13.625V10.5C8.625 10.0027 8.82254 9.52581 9.17417 9.17417C9.52581 8.82254 10.0027 8.625 10.5 8.625H13.625C14.1223 8.625 14.5992 8.82254 14.9508 9.17417C15.3025 9.52581 15.5 10.0027 15.5 10.5V13.625C15.5 14.1223 15.3025 14.5992 14.9508 14.9508C14.5992 15.3025 14.1223 15.5 13.625 15.5Z" fill="white"/>
</svg>
