<svg width="40" height="40" viewBox="0 0 40 40" fill="none" xmlns="http://www.w3.org/2000/svg">
<rect opacity="0.2" width="40" height="40" rx="20" fill="white"/>
<path d="M29.6531 20.6869L28.0975 26.14C27.8681 26.9406 27.1275 27.5 26.2956 27.5H17.875C17.5294 27.5 17.25 27.22 17.25 26.875V18.125C17.25 17.9906 17.2931 17.8594 17.3737 17.7519L20.7437 13.2269C21.1175 12.7588 21.6562 12.5 22.2338 12.5C23.2769 12.5 24.125 13.3481 24.125 14.3913V17.5H27.2512C28.0419 17.5 28.7681 17.8619 29.2437 18.4931C29.7212 19.1256 29.87 19.925 29.6531 20.6869Z" fill="white"/>
<path d="M15.375 17.5H12.875C12.5294 17.5 12.25 17.78 12.25 18.125V26.875C12.25 27.22 12.5294 27.5 12.875 27.5H15.375C15.7206 27.5 16 27.22 16 26.875V18.125C16 17.78 15.7206 17.5 15.375 17.5ZM14.125 25.9375C13.6075 25.9375 13.1875 25.5175 13.1875 25C13.1875 24.4825 13.6075 24.0625 14.125 24.0625C14.6425 24.0625 15.0625 24.4825 15.0625 25C15.0625 25.5175 14.6425 25.9375 14.125 25.9375Z" fill="#D0D2D6"/>
</svg>
