<svg width="18" height="16" viewBox="0 0 18 16" fill="none" xmlns="http://www.w3.org/2000/svg">
<path id="Vector" d="M12.4615 5.45455C12.4615 5.74387 12.3521 6.02135 12.1574 6.22593C11.9626 6.43052 11.6985 6.54545 11.4231 6.54545C11.148 6.54325 10.8843 6.42921 10.6875 6.22727C10.5908 6.126 10.5142 6.00553 10.4622 5.87287C10.4102 5.74021 10.3838 5.59801 10.3846 5.45455C10.3846 5.16522 10.494 4.88774 10.6888 4.68316C10.8835 4.47857 11.1477 4.36364 11.4231 4.36364C11.6985 4.36364 11.9626 4.47857 12.1574 4.68316C12.3521 4.88774 12.4615 5.16522 12.4615 5.45455V5.45455ZM18 1.45455V14.5455C18 14.9312 17.8541 15.3012 17.5945 15.574C17.3348 15.8468 16.9826 16 16.6154 16H1.38462C1.01739 16 0.66521 15.8468 0.405544 15.574C0.145879 15.3012 0 14.9312 0 14.5455V1.45455C0 1.06878 0.145879 0.698807 0.405544 0.426026C0.66521 0.153246 1.01739 0 1.38462 0H16.6154C16.9826 0 17.3348 0.153246 17.5945 0.426026C17.8541 0.698807 18 1.06878 18 1.45455ZM16.6154 11.3364V1.45455H1.38462V9.88182L4.56058 6.54545C4.82125 6.27563 5.17251 6.12438 5.53846 6.12438C5.90441 6.12438 6.25567 6.27563 6.51635 6.54545L10.3846 10.6091L12.176 8.72727C12.4366 8.45745 12.7879 8.3062 13.1538 8.3062C13.5198 8.3062 13.8711 8.45745 14.1317 8.72727L16.6154 11.3364Z" fill="white"/>
</svg>
