<svg width="20" height="19" viewBox="0 0 20 19" fill="none" xmlns="http://www.w3.org/2000/svg">
<path d="M2.66659 0.666626C1.64909 0.666626 0.833252 1.48636 0.833252 2.50873V11.7193C0.833252 12.2078 1.02641 12.6764 1.37022 13.0218C1.71404 13.3673 2.18036 13.5614 2.66659 13.5614H9.99992V18.1666L12.7499 15.4035L15.4999 18.1666V13.5614H17.3333C17.8195 13.5614 18.2858 13.3673 18.6296 13.0218C18.9734 12.6764 19.1666 12.2078 19.1666 11.7193V2.50873C19.1666 2.02017 18.9734 1.55163 18.6296 1.20617C18.2858 0.860704 17.8195 0.666626 17.3333 0.666626H2.66659ZM9.99992 2.50873L12.7499 4.35084L15.4999 2.50873V5.73242L18.2499 7.11399L15.4999 8.49557V11.7193L12.7499 9.87715L9.99992 11.7193V8.49557L7.24992 7.11399L9.99992 5.73242V2.50873ZM2.66659 2.50873H7.24992V4.35084H2.66659V2.50873ZM2.66659 6.19294H5.41659V8.03505H2.66659V6.19294ZM2.66659 9.87715H7.24992V11.7193H2.66659V9.87715Z" fill="white"/>
</svg>
