<svg width="44" height="44" viewBox="0 0 44 44" fill="none" xmlns="http://www.w3.org/2000/svg">
<path d="M22 13C22.7956 13 23.5587 13.3161 24.1213 13.8787C24.6839 14.4413 25 15.2044 25 16V22C25 22.7956 24.6839 23.5587 24.1213 24.1213C23.5587 24.6839 22.7956 25 22 25C21.2044 25 20.4413 24.6839 19.8787 24.1213C19.3161 23.5587 19 22.7956 19 22V16C19 15.2044 19.3161 14.4413 19.8787 13.8787C20.4413 13.3161 21.2044 13 22 13ZM29 22C29 25.53 26.39 28.44 23 28.93V32H21V28.93C17.61 28.44 15 25.53 15 22H17C17 23.3261 17.5268 24.5979 18.4645 25.5355C19.4021 26.4732 20.6739 27 22 27C23.3261 27 24.5979 26.4732 25.5355 25.5355C26.4732 24.5979 27 23.3261 27 22H29Z" fill="white"/>
<rect x="0.5" y="0.5" width="43" height="43" rx="21.5" stroke="#788296" stroke-dasharray="3 3"/>
</svg>
