<svg width="40" height="40" viewBox="0 0 40 40" fill="none" xmlns="http://www.w3.org/2000/svg">
<rect opacity="0.2" width="40" height="40" rx="20" fill="white"/>
<g clip-path="url(#clip0_1_223)">
<path d="M20 11.6666C24.6025 11.6666 28.3333 15.3975 28.3333 20C28.3333 24.6025 24.6025 28.3333 20 28.3333C15.3975 28.3333 11.6666 24.6025 11.6666 20C11.6666 15.3975 15.3975 11.6666 20 11.6666ZM20 15C19.7789 15 19.567 15.0878 19.4107 15.244C19.2544 15.4003 19.1666 15.6123 19.1666 15.8333V20C19.1667 20.221 19.2545 20.4329 19.4108 20.5891L21.9108 23.0891C22.068 23.2409 22.2785 23.3249 22.497 23.323C22.7155 23.3211 22.9245 23.2335 23.079 23.079C23.2335 22.9245 23.3211 22.7155 23.323 22.497C23.3249 22.2785 23.2409 22.068 23.0891 21.9108L20.8333 19.655V15.8333C20.8333 15.6123 20.7455 15.4003 20.5892 15.244C20.4329 15.0878 20.221 15 20 15Z" fill="white"/>
<path d="M20 15.4166V20L22.9167 22.9166" stroke="#82868E" stroke-width="2" stroke-linecap="round" stroke-linejoin="round"/>
</g>
<defs>
<clipPath id="clip0_1_223">
<rect width="20" height="20" fill="white" transform="translate(10 10)"/>
</clipPath>
</defs>
</svg>
